<?xml version="1.0" standalone="no"?>
<svg xmlns="http://www.w3.org/2000/svg" xmlns:xlink="http://www.w3.org/1999/xlink" width="555pt" height="914pt" viewBox="0.00 0.00 554.74 914.40">
<g id="graph0" class="graph" transform="translate(4,910.4000244140625) scale(1)" data-name="rpSsl_menu_overview">

<polygon fill="white" stroke="none" points="-4,4 -4,-910.4 550.74,-910.4 550.74,4 -4,4" style=""/>
<!-- start -->
<g id="node1" class="node" pointer-events="visible" data-name="start">

<ellipse fill="none" stroke="black" cx="327" cy="-888.4" rx="27" ry="18" style=""/>
<text text-anchor="middle" x="327" y="-885.1" font-family="Times,serif" font-size="11.00" style="">Begin</text>
</g>
<!-- title -->
<g id="node2" class="node" pointer-events="visible" data-name="title">

<polygon fill="none" stroke="black" points="376.7,-833.4 277.3,-833.4 277.3,-797.4 376.7,-797.4 376.7,-833.4" style=""/>
<text text-anchor="middle" x="327" y="-812.1" font-family="Times,serif" font-size="11.00" style="">Print welcome title</text>
</g>
<!-- start&#45;&gt;title -->
<g id="edge1" class="edge" data-name="start-&gt;title">

<path fill="none" stroke="black" d="M327,-870.21C327,-862.63 327,-853.5 327,-844.94" style=""/>
<polygon fill="black" stroke="black" points="330.5,-844.94 327,-834.94 323.5,-844.94 330.5,-844.94" style=""/>
</g>
<!-- menu -->
<g id="node3" class="node" pointer-events="visible" data-name="menu">

<polygon fill="none" stroke="black" points="374.2,-760.2 279.8,-760.2 279.8,-713 374.2,-713 374.2,-760.2" style=""/>
<text text-anchor="middle" x="327" y="-746.5" font-family="Times,serif" font-size="11.00" style="">Print menu: </text>
<text text-anchor="middle" x="327" y="-733.3" font-family="Times,serif" font-size="11.00" style=""> (s) Single player </text>
<text text-anchor="middle" x="327" y="-720.1" font-family="Times,serif" font-size="11.00" style=""> (e) Exit</text>
</g>
<!-- title&#45;&gt;menu -->
<g id="edge2" class="edge" data-name="title-&gt;menu">

<path fill="none" stroke="black" d="M327,-796.97C327,-789.55 327,-780.62 327,-771.96" style=""/>
<polygon fill="black" stroke="black" points="330.5,-772.01 327,-762.01 323.5,-772.01 330.5,-772.01" style=""/>
</g>
<!-- readOpt -->
<g id="node4" class="node" pointer-events="visible" data-name="readOpt">

<polygon fill="none" stroke="black" points="294.5,-675.8 181.5,-675.8 181.5,-639.8 294.5,-639.8 294.5,-675.8" style=""/>
<text text-anchor="middle" x="238" y="-654.5" font-family="Times,serif" font-size="11.00" style="">Read choice (getchar)</text>
</g>
<!-- menu&#45;&gt;readOpt -->
<g id="edge3" class="edge" data-name="menu-&gt;readOpt">

<path fill="none" stroke="black" d="M300.3,-712.56C289.74,-703.44 277.58,-692.95 266.82,-683.67" style=""/>
<polygon fill="black" stroke="black" points="269.18,-681.08 259.32,-677.2 264.6,-686.38 269.18,-681.08" style=""/>
</g>
<!-- decOpt -->
<g id="node5" class="node" pointer-events="visible" data-name="decOpt">

<polygon fill="none" stroke="black" points="200,-602.7 121.53,-568.4 200,-534.1 278.47,-568.4 200,-602.7" style=""/>
<text text-anchor="middle" x="200" y="-571.7" font-family="Times,serif" font-size="11.00" style="">choice == 's' ?</text>
<text text-anchor="middle" x="200" y="-558.5" font-family="Times,serif" font-size="11.00" style=""> else if 'e' ?</text>
</g>
<!-- readOpt&#45;&gt;decOpt -->
<g id="edge4" class="edge" data-name="readOpt-&gt;decOpt">

<path fill="none" stroke="black" d="M230.49,-639.53C226.56,-630.48 221.57,-619.02 216.78,-607.99" style=""/>
<polygon fill="black" stroke="black" points="220.08,-606.8 212.88,-599.03 213.66,-609.59 220.08,-606.8" style=""/>
</g>
<!-- badOpt -->
<g id="node6" class="node" pointer-events="visible" data-name="badOpt">

<polygon fill="none" stroke="black" points="377.98,-481.2 276.02,-481.2 276.02,-445.2 377.98,-445.2 377.98,-481.2" style=""/>
<text text-anchor="middle" x="327" y="-466.5" font-family="Times,serif" font-size="11.00" style="">Print error: </text>
<text text-anchor="middle" x="327" y="-453.3" font-family="Times,serif" font-size="11.00" style=""> "Unknown option"</text>
</g>
<!-- decOpt&#45;&gt;badOpt -->
<g id="edge7" class="edge" data-name="decOpt-&gt;badOpt">

<path fill="none" stroke="black" d="M224.45,-544.57C239.35,-530.97 258.98,-513.61 277.23,-499.2 281.83,-495.57 286.77,-491.87 291.69,-488.3" style=""/>
<polygon fill="black" stroke="black" points="293.68,-491.18 299.8,-482.53 289.62,-485.48 293.68,-491.18" style=""/>
<text text-anchor="middle" x="295.88" y="-503.4" font-family="Times,serif" font-size="14.00" style=""> other </text>
</g>
<!-- init -->
<g id="node7" class="node" pointer-events="visible" data-name="init">

<polygon fill="none" stroke="black" points="257.77,-481.2 98.23,-481.2 98.23,-445.2 257.77,-445.2 257.77,-481.2" style=""/>
<text text-anchor="middle" x="178" y="-466.5" font-family="Times,serif" font-size="11.00" style="">Init scores: human=0, agent=0 </text>
<text text-anchor="middle" x="178" y="-453.3" font-family="Times,serif" font-size="11.00" style=""> Seed RNG: srand(time(NULL))</text>
</g>
<!-- decOpt&#45;&gt;init -->
<g id="edge5" class="edge" data-name="decOpt-&gt;init">

<path fill="none" stroke="black" d="M193.46,-536.72C190.48,-522.75 186.98,-506.31 184.06,-492.63" style=""/>
<polygon fill="black" stroke="black" points="187.5,-491.97 181.99,-482.92 180.65,-493.43 187.5,-491.97" style=""/>
<text text-anchor="middle" x="197.75" y="-503.4" font-family="Times,serif" font-size="14.00" style=""> 's' </text>
</g>
<!-- end -->
<g id="node14" class="node" pointer-events="visible" data-name="end">

<ellipse fill="none" stroke="black" cx="82" cy="-18" rx="27" ry="18" style=""/>
<text text-anchor="middle" x="82" y="-14.7" font-family="Times,serif" font-size="11.00" style="">End</text>
</g>
<!-- decOpt&#45;&gt;end -->
<g id="edge6" class="edge" data-name="decOpt-&gt;end">

<path fill="none" stroke="black" d="M136.99,-561.17C78.37,-551.48 0,-526.81 0,-464.2 0,-464.2 0,-464.2 0,-90 0,-63.01 25.7,-43.99 48.32,-32.47" style=""/>
<polygon fill="black" stroke="black" points="49.8,-35.64 57.35,-28.21 46.82,-29.31 49.8,-35.64" style=""/>
<text text-anchor="middle" x="9.13" y="-297.2" font-family="Times,serif" font-size="14.00" style=""> 'e' </text>
</g>
<!-- badOpt&#45;&gt;menu -->
<g id="edge8" class="edge" data-name="badOpt-&gt;menu">

<path fill="none" stroke="black" d="M327,-481.56C327,-525.81 327,-643.38 327,-701.75" style=""/>
<polygon fill="black" stroke="black" points="323.5,-701.41 327,-711.41 330.5,-701.41 323.5,-701.41" style=""/>
</g>
<!-- round -->
<g id="node8" class="node" pointer-events="visible" data-name="round">

<polygon fill="none" stroke="black" points="243.31,-392.4 124.69,-392.4 124.69,-356.4 243.31,-356.4 243.31,-392.4" style=""/>
<text text-anchor="middle" x="184" y="-377.7" font-family="Times,serif" font-size="11.00" style="">Play one full round </text>
<text text-anchor="middle" x="184" y="-364.5" font-family="Times,serif" font-size="11.00" style=""> (see second flowchart)</text>
</g>
<!-- init&#45;&gt;round -->
<g id="edge9" class="edge" data-name="init-&gt;round">

<path fill="none" stroke="black" d="M179.19,-445.05C179.99,-433.36 181.08,-417.59 182.02,-404.02" style=""/>
<polygon fill="black" stroke="black" points="185.49,-404.54 182.69,-394.32 178.51,-404.06 185.49,-404.54" style=""/>
</g>
<!-- showSc -->
<g id="node9" class="node" pointer-events="visible" data-name="showSc">

<polygon fill="none" stroke="black" points="254.95,-319.4 113.05,-319.4 113.05,-283.4 254.95,-283.4 254.95,-319.4" style=""/>
<text text-anchor="middle" x="184" y="-298.1" font-family="Times,serif" font-size="11.00" style="">Print shapes + updated score</text>
</g>
<!-- round&#45;&gt;showSc -->
<g id="edge10" class="edge" data-name="round-&gt;showSc">

<path fill="none" stroke="black" d="M184,-356.21C184,-348.63 184,-339.5 184,-330.94" style=""/>
<polygon fill="black" stroke="black" points="187.5,-330.94 184,-320.94 180.5,-330.94 187.5,-330.94" style=""/>
</g>
<!-- checkW -->
<g id="node10" class="node" pointer-events="visible" data-name="checkW">

<polygon fill="none" stroke="black" points="184,-230.5 27.67,-196.2 184,-161.9 340.33,-196.2 184,-230.5" style=""/>
<text text-anchor="middle" x="184" y="-199.5" font-family="Times,serif" font-size="11.00" style="">human==WINNING_SCORE? </text>
<text text-anchor="middle" x="184" y="-186.3" font-family="Times,serif" font-size="11.00" style=""> agent==WINNING_SCORE?</text>
</g>
<!-- showSc&#45;&gt;checkW -->
<g id="edge11" class="edge" data-name="showSc-&gt;checkW">

<path fill="none" stroke="black" d="M184,-283.36C184,-272.16 184,-256.93 184,-242.39" style=""/>
<polygon fill="black" stroke="black" points="187.5,-242.49 184,-232.49 180.5,-242.49 187.5,-242.49" style=""/>
</g>
<!-- winH -->
<g id="node11" class="node" pointer-events="visible" data-name="winH">

<polygon fill="none" stroke="black" points="136.2,-109 27.8,-109 27.8,-73 136.2,-73 136.2,-109" style=""/>
<text text-anchor="middle" x="82" y="-87.7" font-family="Times,serif" font-size="11.00" style="">Print "Human wins!"</text>
</g>
<!-- checkW&#45;&gt;winH -->
<g id="edge12" class="edge" data-name="checkW-&gt;winH">

<path fill="none" stroke="black" d="M156.67,-167.54C141.23,-151.93 122.08,-132.55 107.04,-117.33" style=""/>
<polygon fill="black" stroke="black" points="109.74,-115.08 100.22,-110.43 104.76,-120 109.74,-115.08" style=""/>
<text text-anchor="middle" x="152.05" y="-131.2" font-family="Times,serif" font-size="14.00" style="">human</text>
</g>
<!-- winA -->
<g id="node12" class="node" pointer-events="visible" data-name="winA">

<polygon fill="none" stroke="black" points="257.7,-109 154.3,-109 154.3,-73 257.7,-73 257.7,-109" style=""/>
<text text-anchor="middle" x="206" y="-87.7" font-family="Times,serif" font-size="11.00" style="">Print "Agent wins!"</text>
</g>
<!-- checkW&#45;&gt;winA -->
<g id="edge13" class="edge" data-name="checkW-&gt;winA">

<path fill="none" stroke="black" d="M190.84,-163.11C193.77,-149.38 197.15,-133.49 199.98,-120.22" style=""/>
<polygon fill="black" stroke="black" points="203.32,-121.34 201.99,-110.83 196.48,-119.88 203.32,-121.34" style=""/>
<text text-anchor="middle" x="214.16" y="-131.2" font-family="Times,serif" font-size="14.00" style="">agent</text>
</g>
<!-- again -->
<g id="node13" class="node" pointer-events="visible" data-name="again">

<polygon fill="none" stroke="black" points="368,-109 294.85,-91 368,-73 441.15,-91 368,-109" style=""/>
<text text-anchor="middle" x="368" y="-87.7" font-family="Times,serif" font-size="11.00" style="">No winner yet?</text>
</g>
<!-- checkW&#45;&gt;again -->
<g id="edge16" class="edge" data-name="checkW-&gt;again">

<path fill="none" stroke="black" d="M227.14,-171C260.78,-152.14 306.69,-126.39 336.82,-109.49" style=""/>
<polygon fill="black" stroke="black" points="338.45,-112.59 345.46,-104.64 335.03,-106.48 338.45,-112.59" style=""/>
<text text-anchor="middle" x="319.16" y="-131.2" font-family="Times,serif" font-size="14.00" style="">None</text>
</g>
<!-- winH&#45;&gt;end -->
<g id="edge14" class="edge" data-name="winH-&gt;end">

<path fill="none" stroke="black" d="M82,-72.81C82,-65.23 82,-56.1 82,-47.54" style=""/>
<polygon fill="black" stroke="black" points="85.5,-47.54 82,-37.54 78.5,-47.54 85.5,-47.54" style=""/>
</g>
<!-- winA&#45;&gt;end -->
<g id="edge15" class="edge" data-name="winA-&gt;end">

<path fill="none" stroke="black" d="M175.67,-72.63C156.22,-61.5 131.09,-47.11 111.75,-36.04" style=""/>
<polygon fill="black" stroke="black" points="113.69,-33.11 103.27,-31.18 110.21,-39.19 113.69,-33.11" style=""/>
</g>
<!-- again&#45;&gt;menu -->
<g id="edge18" class="edge" data-name="again-&gt;menu">

<path fill="none" stroke="black" d="M377.39,-107.09C388.65,-126.65 406,-162.17 406,-195.2 406,-658.8 406,-658.8 406,-658.8 406,-677.83 394.07,-693.66 379.48,-705.92" style=""/>
<polygon fill="black" stroke="black" points="377.65,-702.92 371.86,-711.79 381.92,-708.46 377.65,-702.92" style=""/>
<text text-anchor="middle" x="476.37" y="-414.6" font-family="Times,serif" font-size="14.00" style="">   No (back to menu/exit)</text>
</g>
<!-- again&#45;&gt;round -->
<g id="edge17" class="edge" data-name="again-&gt;round">

<path fill="none" stroke="black" d="M368.95,-109.17C369.75,-136.36 368.43,-190.36 349,-230.6 323.03,-284.38 266.48,-326.07 226.85,-350.17" style=""/>
<polygon fill="black" stroke="black" points="225.29,-347.03 218.48,-355.15 228.86,-353.05 225.29,-347.03" style=""/>
<text text-anchor="middle" x="348.89" y="-252.8" font-family="Times,serif" font-size="14.00" style="">Yes</text>
</g>
</g>
</svg>